<?xml version="1.0" encoding="utf-8"?>
<!-- Generator: Adobe Illustrator 21.1.0, SVG Export Plug-In . SVG Version: 6.00 Build 0)  -->
<svg version="1.1" id="Layer_1" xmlns="http://www.w3.org/2000/svg" xmlns:xlink="http://www.w3.org/1999/xlink" x="0px" y="0px"
	 viewBox="0 0 128 128" style="enable-background:new 0 0 128 128;" xml:space="preserve">
<style type="text/css">
	.st0{fill:#E16B5A;}
	.st1{fill:#CCCCCC;}
	.st2{fill:#CC584C;}
	.st3{fill:#406A80;}
	.st4{fill:#F5F5F5;}
	.st5{fill:#E6CBC3;}
	.st6{fill:#D9BFB8;}
	.st7{fill:#FFE1D9;}
	.st8{fill:#F2D6CE;}
	.st9{fill:#805026;}
	.st10{fill:#734822;}
	.st11{fill:#CC9B8E;}
</style>
<g>
	<path class="st0" d="M128,64v64H0V64C0,28.7,28.7,0,64,0S128,28.7,128,64z"/>
	<g>
		<g>
			<g>
				<rect x="49.9" y="101.6" class="st1" width="27.4" height="22.6"/>
				<polygon class="st2" points="65.6,115.3 66.5,117.5 66.5,117.7 65.8,124.2 65.4,128 60.5,128 60.1,124.2 59.4,117.8 59.4,117.5 
					60.3,115.3 59.8,115.3 57.3,109.9 63,104 68.6,109.9 66.1,115.3 				"/>
				<polygon class="st3" points="63,122.8 63,128 15.8,128 20.3,105.4 45.4,97.9 49.9,104.3 59.4,117.8 				"/>
				<polygon class="st3" points="109.8,128 63,128 63,122.8 66.5,117.7 77.4,102.3 80.5,97.9 104.7,106.4 				"/>
				<polygon class="st4" points="75,94.4 63,93 50.9,94.4 45.4,97.9 55.3,111.9 63,104 70.6,111.9 80.5,97.9 				"/>
				<path class="st5" d="M75.4,95.6L75.4,95.6L72,84.9l-9-0.7l-9,0.7l-3.4,10.6h0c-0.1,0.1-0.1,0.3-0.1,0.4c0,2.2,5.6,4,12.5,4
					s12.5-1.8,12.5-4C75.5,95.9,75.4,95.7,75.4,95.6z"/>
				<path class="st6" d="M75.4,95.6L75.4,95.6L72,84.9l-9-0.7l-1.8,0.1l7.3,0.5l3.4,10.6h0c0.1,0.1,0.1,0.3,0.1,0.4
					c0,2-4.7,3.7-10.8,3.9c0.6,0,1.2,0,1.8,0c6.9,0,12.5-1.8,12.5-4C75.5,95.9,75.4,95.7,75.4,95.6z"/>
				<path class="st7" d="M89,42V31.6C89,23.5,83.2,17,63,17s-26,6.5-26,14.6V42c0,0-4,0.3-4,3v11.1c0,2.7,1,4.9,4,4.9
					c0,13.5,12,29,26,29s26-15.5,26-29c3,0,4-2.2,4-4.9V45C93,42.3,89,42,89,42z"/>
				<path class="st8" d="M63,17c-0.5,0-1,0-1.5,0c19,0.3,24.5,6.7,24.5,14.6V42v19c0,13-11.2,27.9-24.5,28.9c0.5,0,1,0.1,1.5,0.1
					c14,0,26-15.5,26-29V42V31.6C89,23.5,83.2,17,63,17z"/>
				<path class="st9" d="M63,17c-20.2,0-26,6.5-26,14.6V42v11c0.9-4.6,3.6-17.8,9.5-22.1C51.2,32.2,56.9,33,63,33s11.8-0.8,16.5-2.1
					C85.4,35.2,88,48.4,89,53V42V31.6C89,23.5,83.2,17,63,17z"/>
				<path class="st10" d="M63,17c-0.5,0-1,0-1.5,0c19,0.3,24.5,6.7,24.5,14.6v9.9c1.6,4.5,2.5,9.2,3,11.5V42V31.6
					C89,23.5,83.2,17,63,17z"/>
				<g>
					<path class="st11" d="M69.4,74c0.2,1.1-2.6,2.7-6.4,2.7S56.3,75,56.5,74c0.2-1.1,3.1-1.3,6.4-1.3C66.3,72.6,69.1,72.9,69.4,74z
						"/>
				</g>
			</g>
		</g>
	</g>
	<g>
		<g>
			<ellipse class="st4" cx="53" cy="50" rx="4" ry="3"/>
			<circle class="st10" cx="53" cy="50" r="2"/>
		</g>
		<g>
			<ellipse class="st4" cx="73" cy="50" rx="4" ry="3"/>
			<circle class="st10" cx="73" cy="50" r="2"/>
		</g>
	</g>
</g>
</svg>
