<?xml version="1.0" encoding="utf-8"?>
<!-- Generator: Adobe Illustrator 21.1.0, SVG Export Plug-In . SVG Version: 6.00 Build 0)  -->
<svg version="1.1" id="Layer_1" xmlns="http://www.w3.org/2000/svg" xmlns:xlink="http://www.w3.org/1999/xlink" x="0px" y="0px"
	 viewBox="0 0 128.3 107.5" style="enable-background:new 0 0 128.3 107.5;" xml:space="preserve">
<style type="text/css">
	.st0{fill:#72E9FF;}
	.st1{fill:#73BEFF;}
	.st2{fill:#97F3FF;}
	.st3{fill:#96F2FF;}
	.st4{fill:#72E7FF;}
	.st5{fill:#FFFFFF;}
	.st6{fill:none;stroke:#000000;stroke-width:2;stroke-miterlimit:10;}
</style>
<g id="Layer_1_1_">
	<path class="st0" d="M128.3,48.9L128.2,0h-6.5L21.9,0h-5.5C9.4,10.3,5.6,22,4.9,34.7c-0.4,4.7-0.4,8.6,0.5,13.2
		c0.5,2.2,0.8,4.5,1.5,6.6c1.3,4.4,2.4,8.3,4.1,12.3c1.5,4.2,4.1,7,6.2,10.5c0.4,0.5,0.9,0.9,1.2,1.4c10.3,13.5,23.7,22.3,40.3,25.8
		c12.6,2.7,25.1,1.9,37.3-2.5c13.4-4.8,24.1-13.1,32.4-24.5v-3.6L128.3,48.9z"/>
	<path class="st1" d="M121.7,0.1H21.9c-2.1,2.8-4.2,5.6-6.3,8.4c-6.5,9.1-7.9,19.4-6.9,30.1c0.8,7.8,2.6,15.5,5.6,22.8
		c1.8,4.4,4,8.7,7.4,12.1c1.9,1.9,3.8,1.5,4.8-1c0.3-0.8,0.4-1.6,0.6-2.4c0.3-1.7,0.3-3.4,0.9-5c1.5-4.2,5.4-6.4,8.2-9.6
		c1.9-2.1,3.8-1.6,5.9-0.8c0.9,0.3,1.8,0.8,2.5,1.4c4.1,3.7,8.1,7.5,12.1,11.3c2.2,2.1,4.4,4.3,7.5,5.1c3.9,1,7-0.7,10.4-2.1
		s4.7-3.9,4.4-7.3c-0.6-5.4-1.5-10.8-2.2-16.2c-0.3-2.2-0.7-4.4,0.7-6.5c0.9-1.4,1.3-3,2.1-4.4c2.2-3.7,4-7.8,8.9-8.9
		c-2.8-0.6-3.6-2.7-3.9-5.1c-0.5-5.3,0-10.4,4.2-14.3c3.7-3.5,10.8-4.4,15.5-2.6c3.1,1.2,6.4,1.7,9.7,2.1c2.5,0.3,5.2,0.1,7.8,0.1
		C122.6,5.1,122.4,2.6,121.7,0.1z"/>
	<path class="st2" d="M128.3,35.7v38.2c-1.2,1.6-2.5,3.2-3.8,4.8c0.6-2.3,1.1-4,1.5-5.7c-0.2-0.1-0.4-0.3-0.6-0.4
		c-1.6,1.3-3.1,2.8-4.8,3.9c-2.1,1.4-2.8,3.1-2.5,5.5c0.1,0.6-0.3,1.4-0.7,1.8c-6,6.4-12.8,11.7-21.1,14.9
		c-4.6,1.8-9.3,3.5-14.3,3.1c-8.6-0.7-17.3,0.1-25.7-1.9c-0.4-0.1-0.8-0.3-1.2-0.3c-5.5-0.2-8.8-4.1-12.5-7.4
		c-0.1-0.1-0.1-0.4-0.3-0.8c2.8,0.1,5.5,0.3,8.6,0.5c-0.5-1.3-0.9-2.3-1.2-3.2c-0.8-2.4-1.8-4.7-2.4-7.2c-0.7-2.5,0-3.7,2.4-4.8
		c2.5-1.2,5.1-2,7.9-1.1c1.6,0.5,2.4,1.5,2.8,3.1c0.6,2.5,1.3,5.1,2.4,7.4c1.7,3.5,4.7,4.1,7.8,1.7c1.8-1.4,3.3-3.1,5-4.5
		c3.1-2.7,6.3-5.3,9.5-7.8c1.3-0.9,1.5-2,1.1-3.2C85.5,70,86,68,87.3,66.1c1.2-1.8,1.1-3.3-0.1-5.1c-0.8-1.2-1.4-2.7-1.9-4.1
		c-0.7-1.9,0-3.5,1.9-4c2.7-0.8,5.1-0.4,7.6,1.2c4.2,2.7,6.5,6.5,8.1,11c0.2,0.6,0.1,1.5-0.1,2.1c-0.6,1.5-1.3,3.1-2,4.5
		s-0.3,2,1,2.5s2.6,1.2,4,1.5c0.7,0.1,2.1-0.4,2.3-0.9c0.9-3.5,3.3-5.6,6.1-7.4c3.5-2.4,7.2-4.6,10.7-6.9c0.7-0.5,1.5-1.1,1.9-1.8
		c0.3-0.7,0.4-1.8,0.1-2.5c-1.5-2.6-3.2-5.1-4.9-7.7c-0.8-0.3-2.3-0.5-2.9-1.3c-0.5-0.7-0.1-2.2,0.1-3.3c0.2-0.9,0.9-1.8,1-2.7
		c0.3-2.6,2.2-3.4,4.2-4.1C125.7,36.8,127,36.3,128.3,35.7z"/>
	<path class="st3" d="M88.6,27.1c-2.8-0.6-4.8-3.2-5.1-5.6C83,16.2,84,10.2,88.2,6.2c3.7-3.5,11.8-4.4,16.5-2.6
		c3.1,1.2,6.9,2.5,10.2,2.9c2.6,0.3,4.5,0.7,7.1,0.7c-0.1,0.4-0.1,1-0.3,1.3c-2.5,4.4-6.8,5.3-11.3,5.2s-8.4,1-12.2,3.5
		c-2.6,1.7-4.3,4.1-5.3,6.8C92.1,26.3,91.2,27.6,88.6,27.1z"/>
	<path class="st4" d="M53.3,2.6c-2.8,2.4-6.9,3.3-7.9,7.5c0.4,0.3,0.9,0.6,1.8,1.3c-2.3,0.5-4.3,1-6.2,1.4c-0.9,0.2-1.9,0.3-2.8,0.4
		c-1.8,0.2-3-0.8-3.5-2.3c-0.3-0.9,0-2.4,0.7-3c2.6-2.4,5.3-4.6,8.2-6.6c0.8-0.6,2.2-0.4,3.3-0.3C49,1.4,51.1,2,53.3,2.6z"/>
</g>
<g id="faces">
	<g>
		<polygon class="st5" points="32.3,29.6 38.5,29.8 43.5,32.4 45.9,35.4 46.8,40.5 46.4,45.4 45,46.6 39.4,45.2 30.2,43.1 23.1,42 
			20.5,41.7 22,39 26,33.3 28.5,31.4 		"/>
		<polygon class="st5" points="81.7,33.2 92.1,31 98.4,29.6 100.2,32 102.2,38.3 100.9,44 99.6,45.3 91,44.8 80.7,45.3 77.8,44.8 
			77,40 78.9,34.8 		"/>
		<path class="st6" d="M116.5,25.2c0,0-37.4,9.4-42.8,9.2"/>
		<path class="st6" d="M109.7,47.1c0,0-16.8-4.7-35.3-0.6"/>
		<path class="st6" d="M100.2,45.4c0,0,5.7-9.3-2.3-15.7"/>
		<path class="st6" d="M78.4,45.7c0,0-3.8-4,1.1-12.1"/>
		<path class="st6" d="M60.8,31.4c0,0-1.7,8.3-17-9.8C28.1,5,24,13.5,24,13.5"/>
		<path class="st6" d="M49.8,47.8c0,0-25.5-6.8-30.8-6"/>
		<path class="st6" d="M21.3,41.8c0,0-0.2-7.7,10.2-12.1c9.5-2.2,14.2,5.1,14.2,5.1s2.9,6.9,0.3,11.8"/>
		<path class="st6" d="M59.7,45.1c0,0,4,6.7-1.7,16.5c2.3,3.8,2.5,4.5,2.5,4.5"/>
		<path class="st6" d="M89.3,77.3c0,0-29.3-5.7-47.7,3.2"/>
		<path class="st6" d="M73.6,81.2c0,0-10.5-0.3-14.9,1.7"/>
		<path d="M88.1,44.7c-0.7,0.1-1.3,0.2-2,0.3c-0.4-0.1-0.8-0.1-1.2-0.1c-0.4,0-0.8,0.1-1.2,0.1c-0.8-0.1-1.6,0-2.4,0.2
			c-0.7,0-1.5,0.1-2.2,0.2c0-0.1,0-0.3,0-0.4c0-4.9,2.3-8.9,5.1-8.9c2.8,0,5,3.9,5.1,8.7C88.9,44.7,88.5,44.7,88.1,44.7z"/>
		<path d="M24.5,42.2c0.4-4.1,2.9-7.3,5.9-7.3c3.3,0,6,3.7,6,8.4c0,0.7-0.1,1.3-0.2,1.9C32.5,43.3,28.6,42.5,24.5,42.2z"/>
	</g>
</g>
</svg>
